<svg version="1.1" id="Layer_1" xmlns="http://www.w3.org/2000/svg" xmlns:xlink="http://www.w3.org/1999/xlink" x="0px" y="0px"
	 width="100%" viewBox="0 0 1500 600" enable-background="new 0 0 1500 600" xml:space="preserve">
<path fill="#000000" opacity="1.000000" stroke="none" 
	d="
M913.000000,601.000000 
	C608.702759,601.000000 304.905548,601.000000 1.054167,601.000000 
	C1.054167,401.059906 1.054167,201.119766 1.054167,1.089822 
	C500.880676,1.089822 1000.761414,1.089822 1500.821045,1.089822 
	C1500.821045,200.999878 1500.821045,400.999908 1500.821045,601.000000 
	C1305.119507,601.000000 1109.309814,601.000000 913.000000,601.000000 
M250.500000,516.000000 
	C203.009094,516.000061 155.518188,515.999634 108.027290,516.002075 
	C106.194473,516.002136 104.360298,516.081665 102.529144,516.033386 
	C99.370483,515.950256 98.204185,517.494385 97.990524,520.587830 
	C97.139442,532.909912 97.150429,532.999695 109.207413,532.999695 
	C527.795959,533.000000 946.384583,532.999939 1364.973145,532.999451 
	C1366.639526,532.999451 1368.318726,532.857300 1369.969727,533.015137 
	C1374.548218,533.452881 1376.075317,531.416016 1376.072021,526.909058 
	C1376.064087,516.003357 1376.235229,516.000427 1365.292114,516.000427 
	C994.028076,515.999939 622.764038,516.000061 250.500000,516.000000 
M368.000000,246.500000 
	C364.109253,242.615128 360.359467,238.571625 356.257080,234.924835 
	C354.656769,233.502258 352.267975,232.169449 350.229797,232.156662 
	C321.406921,231.975662 292.582550,232.047165 263.758606,232.005508 
	C259.622559,231.999527 258.698792,233.657150 260.554291,237.232574 
	C263.803436,243.493515 264.078979,250.215256 264.062805,257.129242 
	C263.945709,307.113037 264.105804,357.097748 263.860962,407.080627 
	C263.831604,413.070557 262.294983,419.157410 260.732452,425.005768 
	C259.215759,430.682434 259.014893,430.958344 264.968903,430.976074 
	C280.963654,431.023621 296.958649,431.004883 312.953491,430.975067 
	C314.562317,430.972076 316.170685,430.713531 318.462708,430.514130 
	C317.791534,428.110199 317.272034,426.268738 316.763550,424.424194 
	C315.844513,421.090363 314.220978,417.771423 314.142273,414.416901 
	C313.833618,401.261627 313.991943,388.094910 314.029144,374.932587 
	C314.036560,372.311584 313.636444,369.431702 317.645874,369.048767 
	C321.323456,368.697479 323.103882,370.235260 323.987213,373.740784 
	C326.951935,385.505981 330.417511,397.154602 333.035583,408.992889 
	C334.146820,414.017578 334.133240,419.442169 333.721619,424.612610 
	C333.252838,430.501099 333.150604,430.957764 339.129700,430.975403 
	C355.124451,431.022644 371.119446,431.005066 387.114288,430.973511 
	C388.699463,430.970367 390.284088,430.693848 392.632629,430.472137 
	C391.713501,428.134918 391.151794,426.468903 390.416077,424.883667 
	C388.734772,421.261047 386.466400,417.830109 385.321472,414.053070 
	C379.728363,395.601898 374.330688,377.089142 369.163269,358.514862 
	C368.629272,356.595367 369.422119,353.569824 370.734009,352.014709 
	C374.373871,347.699982 378.867859,344.105560 382.505371,339.789154 
	C384.266083,337.699860 385.805206,334.642365 385.838837,332.002777 
	C386.106354,311.012878 386.105804,290.016602 385.839966,269.026672 
	C385.806488,266.384491 384.311096,263.280731 382.525360,261.235840 
	C378.151642,256.227356 373.211945,251.713120 368.000000,246.500000 
M840.103088,314.658722 
	C835.559082,337.470520 831.232605,360.328583 826.394653,383.077881 
	C823.163391,398.272278 822.333008,414.169556 814.151978,428.040344 
	C813.860229,428.534943 814.015625,429.293274 813.949768,430.082947 
	C814.690063,430.380371 815.276489,430.820587 815.864441,430.822479 
	C833.687805,430.879578 851.511353,430.907715 869.334839,430.899750 
	C872.184204,430.898468 873.413086,429.138763 872.591187,426.608215 
	C869.378845,416.718689 872.487976,407.209595 873.981384,397.580963 
	C874.481079,394.359131 876.152100,392.980530 879.362671,393.014771 
	C886.025635,393.085846 892.705444,392.786102 899.343079,393.202301 
	C901.075867,393.310944 903.901733,395.290436 904.142395,396.753387 
	C905.683655,406.123627 909.458923,415.367004 906.241211,425.143677 
	C904.906128,429.200287 906.227295,431.155701 911.030212,431.085052 
	C927.353333,430.844788 943.682129,431.007996 960.008728,430.973053 
	C961.562195,430.969727 963.114990,430.657990 965.439697,430.405670 
	C963.818787,426.965240 962.484558,424.341217 961.335632,421.638397 
	C960.108521,418.751526 958.604370,415.881104 957.994812,412.848022 
	C946.275146,354.538025 934.627136,296.213409 923.122253,237.860718 
	C922.230103,233.335907 920.181458,231.899902 915.743347,231.934509 
	C894.919861,232.096939 874.094299,231.994446 853.269592,232.025787 
	C851.534851,232.028397 849.800598,232.322998 847.014221,232.578323 
	C848.828857,236.379120 850.537231,239.212280 851.537964,242.276581 
	C852.421509,244.982285 853.335999,248.101669 852.828613,250.770660 
	C848.826233,271.823303 844.485840,292.811676 840.103088,314.658722 
M1191.757324,355.230896 
	C1194.886230,356.357300 1198.092529,357.309570 1201.124390,358.654755 
	C1204.797974,360.284729 1205.991333,358.921600 1205.984131,355.326874 
	C1205.953125,339.996521 1205.978638,324.666046 1205.941528,309.335724 
	C1205.939209,308.387299 1205.575317,307.439758 1205.313599,306.172180 
	C1204.005615,306.354218 1202.727417,306.195953 1201.833130,306.708130 
	C1192.141479,312.258972 1181.532349,310.895905 1171.097412,311.007355 
	C1167.516724,311.045624 1165.947876,309.615631 1165.993042,305.976257 
	C1166.100830,297.312622 1166.101929,288.645782 1165.994019,279.982147 
	C1165.948242,276.309570 1167.590698,274.928406 1171.139160,274.992249 
	C1177.302490,275.103241 1183.469849,275.037506 1189.635132,274.993439 
	C1199.770874,274.921051 1209.999390,274.126556 1219.327026,279.508759 
	C1220.048950,279.925232 1221.219604,279.563568 1222.314453,279.563568 
	C1222.525513,278.864380 1222.874512,278.244171 1222.876465,277.622864 
	C1222.919678,263.793396 1222.914185,249.963791 1222.944702,236.134293 
	C1222.952148,232.727371 1220.864258,232.016708 1218.013062,232.017761 
	C1184.019287,232.030365 1150.025391,232.039902 1116.031616,231.990082 
	C1112.055664,231.984253 1111.400024,233.592270 1112.956177,236.942230 
	C1115.640991,242.721939 1117.131226,248.644394 1117.105347,255.209320 
	C1116.911499,304.366394 1116.913208,353.524872 1117.081787,402.682098 
	C1117.111328,411.300110 1116.670044,419.614655 1112.406616,427.339172 
	C1111.982422,428.107758 1112.129150,429.191528 1111.901001,431.000000 
	C1116.232788,431.000000 1120.173828,431.000275 1124.114990,430.999969 
	C1155.942627,430.997467 1187.770386,430.930481 1219.597534,431.063293 
	C1224.256348,431.082733 1226.163574,429.651154 1226.070190,424.781158 
	C1225.830444,412.287994 1225.901855,399.786346 1226.031372,387.289948 
	C1226.077515,382.831726 1224.400024,382.169861 1220.547241,383.704041 
	C1216.403687,385.354034 1212.125977,387.565338 1207.827515,387.757965 
	C1195.520996,388.309479 1183.174072,387.924377 1170.843506,387.993652 
	C1167.497192,388.012451 1165.973022,386.620483 1166.007690,383.222565 
	C1166.086182,375.558258 1166.131348,367.890472 1165.980103,360.228241 
	C1165.902588,356.306824 1167.620239,354.885010 1171.393677,354.982788 
	C1177.888062,355.151154 1184.388550,355.085693 1191.757324,355.230896 
M440.500000,431.000000 
	C468.490234,430.997803 496.481079,430.901611 524.470154,431.080109 
	C529.508850,431.112213 531.190552,429.394379 531.080078,424.409729 
	C530.814270,412.419739 531.012207,400.419739 530.976074,388.423950 
	C530.970825,386.666443 530.708435,384.909698 530.498596,382.339264 
	C527.824097,383.236694 525.848999,383.874542 523.891296,384.562073 
	C520.766357,385.659607 517.677551,387.665466 514.530273,387.754242 
	C501.379211,388.125122 488.209564,388.041046 475.054565,387.758087 
	C473.698120,387.728912 471.304535,385.311188 471.244568,383.921783 
	C470.885681,375.607574 470.936188,367.265533 471.210754,358.944702 
	C471.253571,357.647400 473.166260,355.301910 474.182648,355.319031 
	C483.899323,355.482635 493.822388,353.124023 503.261536,357.488617 
	C505.370209,358.463684 507.817352,358.706757 509.932709,359.242310 
	C510.447601,358.208771 510.719849,357.916351 510.721527,357.622406 
	C510.814423,341.467834 510.894775,325.313232 510.948700,309.158508 
	C510.959656,305.879791 509.038879,305.421783 506.664673,306.766998 
	C496.952301,312.270050 486.354156,310.890045 475.926025,310.993042 
	C472.641785,311.025452 470.981812,309.766693 471.011505,306.306274 
	C471.087250,297.476807 471.105164,288.645355 470.998627,279.816467 
	C470.952759,276.014893 472.891785,274.958496 476.303223,274.991669 
	C484.966003,275.075958 493.638489,275.237457 502.291412,274.928406 
	C509.429688,274.673462 516.130371,275.707031 522.627930,278.784393 
	C527.225098,280.961700 527.958801,280.318329 527.979553,274.971008 
	C528.026794,262.808655 527.806885,250.641785 528.081909,238.485504 
	C528.197205,233.389587 526.291992,231.899292 521.365356,231.922958 
	C488.377350,232.081390 455.388214,231.996216 422.399445,232.026749 
	C420.697479,232.028320 418.995880,232.366089 416.951569,232.583817 
	C417.555725,234.736267 417.704651,236.289963 418.393524,237.548035 
	C421.806580,243.781219 422.077728,250.470047 422.061310,257.383850 
	C421.945770,306.033722 421.950684,354.684052 422.048889,403.334015 
	C422.065125,411.380280 422.105988,419.271027 417.847748,426.539978 
	C415.931976,429.810333 417.676056,431.031708 421.006592,431.001007 
	C427.170593,430.944153 433.335510,430.994385 440.500000,431.000000 
M578.000000,335.500000 
	C588.012329,345.517548 598.044189,355.515747 608.025696,365.563965 
	C611.219238,368.778839 612.595337,380.915619 609.785339,384.273254 
	C608.345642,385.993561 605.881409,387.301025 603.655945,387.805176 
	C600.958008,388.416412 598.020935,388.062958 595.191162,387.986023 
	C582.661011,387.645416 569.875366,389.822113 558.017334,383.318207 
	C554.465759,381.370239 554.006836,384.506256 554.009399,387.253784 
	C554.021057,399.916962 554.127197,412.581757 553.951111,425.242493 
	C553.890381,429.607880 555.607239,431.072235 559.862549,431.046173 
	C581.022644,430.916687 602.184875,431.076080 623.343445,430.855499 
	C625.708008,430.830872 628.603333,429.618134 630.317200,427.978668 
	C639.465515,419.227417 648.412354,410.257355 657.179932,401.123993 
	C658.719482,399.520172 659.821228,396.793304 659.858276,394.564056 
	C660.096008,380.238617 660.137756,365.903992 659.833130,351.581116 
	C659.780212,349.091827 658.329590,346.119720 656.576721,344.267639 
	C648.905945,336.162598 640.885437,328.388611 632.993408,320.492950 
	C623.923462,311.418793 614.910278,302.286987 605.761230,293.293274 
	C601.619995,289.222321 602.447327,284.228088 603.650330,279.746033 
	C604.774231,275.558899 608.880432,274.770813 613.062561,274.955078 
	C617.885132,275.167572 622.725098,275.055542 627.556213,274.988647 
	C637.377869,274.852661 647.250122,274.255554 656.249878,279.480835 
	C656.994324,279.913116 658.138916,279.656158 659.429260,279.741333 
	C659.634644,278.257660 659.960571,276.983368 659.964417,275.708130 
	C660.002075,263.045044 659.870850,250.380188 660.049194,237.719528 
	C660.111267,233.315399 658.316345,231.929581 654.099365,231.954681 
	C633.105896,232.079712 612.109741,231.895508 591.118774,232.156601 
	C588.468262,232.189590 585.246948,233.574173 583.307373,235.408310 
	C574.473145,243.762299 565.868103,252.373413 557.505981,261.200256 
	C555.661804,263.146942 554.238159,266.323730 554.166138,268.976044 
	C553.822754,281.629944 553.824829,294.303253 554.163513,306.957397 
	C554.234619,309.615204 555.639832,312.775604 557.463257,314.751038 
	C563.899780,321.724457 570.784973,328.283691 578.000000,335.500000 
M1309.000000,301.500000 
	C1305.948608,298.423950 1301.869995,295.830292 1300.134888,292.135986 
	C1298.404419,288.451508 1298.106812,283.488922 1298.885254,279.412140 
	C1299.575317,275.798676 1303.560303,274.845215 1307.435791,274.951691 
	C1314.595947,275.148346 1321.775391,275.234955 1328.928589,274.935394 
	C1336.229248,274.629639 1343.193359,275.489655 1349.730225,278.897888 
	C1353.702759,280.969086 1355.077148,279.573090 1355.034912,275.327179 
	C1354.910889,262.830170 1354.879272,250.329636 1355.047729,237.833679 
	C1355.105591,233.544937 1353.544800,231.924591 1349.212280,231.952194 
	C1328.049438,232.087051 1306.884033,231.908676 1285.723267,232.157104 
	C1283.230225,232.186386 1280.208252,233.578064 1278.372803,235.326416 
	C1269.446655,243.829391 1260.718140,252.552109 1252.223511,261.485840 
	C1250.485474,263.313721 1249.216553,266.358673 1249.153931,268.878021 
	C1248.843140,281.368591 1248.782837,293.878052 1249.172729,306.364075 
	C1249.265137,309.322845 1250.707886,312.920746 1252.758789,315.028351 
	C1267.981812,330.672333 1283.291748,346.248413 1299.075684,361.320648 
	C1304.400146,366.404999 1306.750488,371.596558 1306.089355,378.820068 
	C1305.489502,385.371155 1303.467773,387.912323 1296.975220,387.970612 
	C1288.643677,388.045349 1280.283447,388.407593 1271.988770,387.851837 
	C1266.650757,387.494171 1261.394165,385.769714 1256.130493,384.532379 
	C1254.117920,384.059296 1252.187500,383.236664 1249.548828,382.347198 
	C1249.316772,384.731262 1249.032471,386.321350 1249.027832,387.912231 
	C1248.991455,400.243713 1249.139893,412.577484 1248.941772,424.905884 
	C1248.869263,429.416809 1250.450073,431.093903 1255.027588,431.059113 
	C1276.023438,430.899567 1297.022705,431.106873 1318.016357,430.838196 
	C1320.655151,430.804443 1323.846924,429.343628 1325.793335,427.499878 
	C1334.621826,419.137115 1343.233765,410.530579 1351.588989,401.695374 
	C1353.423584,399.755493 1354.776978,396.543945 1354.840088,393.882202 
	C1355.163452,380.225037 1354.900391,366.555176 1355.054565,352.892120 
	C1355.097168,349.114899 1353.952271,346.315247 1351.236206,343.640564 
	C1337.234253,329.851837 1323.395752,315.897034 1309.000000,301.500000 
M752.555115,388.000000 
	C751.222412,387.998993 749.889587,388.004242 748.556946,387.995972 
	C740.010559,387.942780 738.014038,385.966827 738.009705,377.348633 
	C737.993958,346.361908 737.987061,315.375122 738.024536,284.388458 
	C738.032837,277.535950 740.512451,275.060608 747.321045,275.025024 
	C758.649231,274.965790 769.984436,274.783081 781.303101,275.115479 
	C785.511597,275.239075 789.719788,276.513977 793.855164,277.553986 
	C796.279297,278.163635 798.559753,279.344879 800.968018,280.293915 
	C801.495422,278.926544 801.823669,278.470734 801.825439,278.013641 
	C801.880920,264.022278 801.905945,250.030762 801.931885,236.039276 
	C801.939026,232.179031 799.253967,232.012497 796.419983,232.013336 
	C772.763489,232.020279 749.106262,231.933762 725.451782,232.153412 
	C723.107422,232.175171 720.258057,233.506271 718.532654,235.158630 
	C709.510925,243.798615 700.668091,252.635040 692.037415,261.665344 
	C690.397217,263.381561 689.151733,266.274872 689.142151,268.630859 
	C688.971313,310.612122 688.978333,352.594452 689.136475,394.575836 
	C689.144775,396.792816 690.286133,399.526611 691.826172,401.130707 
	C700.592834,410.262238 709.538025,419.231049 718.685120,427.980774 
	C720.398621,429.619812 723.295166,430.835022 725.658264,430.856262 
	C749.146301,431.067352 772.637634,430.894867 796.126343,431.064178 
	C800.889404,431.098480 802.112305,429.088745 802.051270,424.755188 
	C801.879883,412.596191 802.008911,400.433105 801.977478,388.271759 
	C801.973328,386.670074 801.725464,385.069031 801.542969,382.904419 
	C799.582336,383.330780 798.008789,383.325317 796.806335,383.990601 
	C788.681702,388.485809 779.865173,388.176025 771.031921,388.019562 
	C765.202942,387.916260 759.370605,388.000000 752.555115,388.000000 
M232.868027,279.832825 
	C233.576828,278.227753 234.876007,276.631470 234.900055,275.016205 
	C235.076126,263.190430 235.013443,251.360825 234.991501,239.532486 
	C234.977722,232.104523 234.893112,232.011566 227.416565,232.008316 
	C194.596970,231.993988 161.777359,231.997086 128.957764,232.015549 
	C127.171501,232.016541 125.385338,232.213791 122.870628,232.362885 
	C123.485336,234.590546 123.972969,236.244675 124.396744,237.914993 
	C125.610428,242.698700 127.817284,247.484177 127.839874,252.277405 
	C128.088699,305.087494 128.037476,357.899231 127.904099,410.710144 
	C127.895134,414.260376 126.742882,417.855225 125.796738,421.340912 
	C125.004410,424.259918 123.735718,427.049622 122.668999,429.920715 
	C124.045967,430.476074 124.499138,430.817596 124.953499,430.819214 
	C142.943329,430.882812 160.933258,430.930267 178.923187,430.939240 
	C182.291580,430.940918 182.176331,429.039429 181.263901,426.559540 
	C179.777222,422.518921 177.369934,418.442932 177.264786,414.332916 
	C176.813248,396.685638 176.999100,379.019897 177.169983,361.362976 
	C177.183426,359.972717 178.901993,357.378021 179.763718,357.404938 
	C188.826584,357.687958 197.904037,358.134583 206.915466,359.109314 
	C210.328690,359.478516 213.581268,361.333069 217.570221,362.745361 
	C217.570221,344.260284 217.570221,326.896393 217.570221,309.564209 
	C216.670685,309.375946 216.179703,309.162354 215.709915,309.201782 
	C215.063110,309.256012 214.355484,309.368195 213.806107,309.684875 
	C203.814499,315.444580 192.841614,313.825348 182.093445,314.003754 
	C178.510406,314.063232 176.954407,312.609802 176.992996,308.974243 
	C177.095551,299.312805 177.096420,289.648895 176.993637,279.987488 
	C176.954620,276.321259 178.579330,274.941010 182.131729,274.991638 
	C189.460327,275.096069 196.795502,275.155396 204.120926,274.963745 
	C213.820129,274.710022 223.450424,274.561493 232.868027,279.832825 
M986.000000,274.500000 
	C986.000000,318.147583 985.949341,361.795288 986.052307,405.442627 
	C986.068604,412.337738 985.688110,418.948212 982.535889,425.323975 
	C980.345703,429.753723 981.321350,430.952087 986.312256,430.959656 
	C1018.298096,431.008301 1050.284424,430.933563 1082.269897,431.047180 
	C1086.657471,431.062775 1088.101562,429.342590 1088.046509,425.111908 
	C1087.883423,412.619537 1088.010010,400.123535 1087.962769,387.629211 
	C1087.956909,386.075165 1087.585693,384.522491 1087.352173,382.726074 
	C1085.580933,383.032410 1084.260376,382.908203 1083.373047,383.469238 
	C1075.268799,388.593842 1066.252808,388.174377 1057.249390,388.015045 
	C1052.419678,387.929565 1047.587158,388.012360 1042.755981,387.995026 
	C1035.037964,387.967346 1035.008545,387.958862 1035.006470,380.140625 
	C1034.995483,339.158539 1035.068604,298.176208 1034.929565,257.194611 
	C1034.907593,250.753998 1035.498047,244.640717 1038.461670,238.825760 
	C1039.378052,237.027695 1039.678223,234.915665 1040.405273,232.458664 
	C1020.236023,232.458664 1000.885864,232.458664 981.642212,232.458664 
	C981.447693,233.232590 981.253174,233.572693 981.309814,233.864014 
	C981.467041,234.673492 981.584717,235.541473 981.971191,236.247849 
	C986.319824,244.195343 986.320129,252.811996 986.023254,261.506042 
	C985.886841,265.499634 986.000000,269.501740 986.000000,274.500000 
M382.500000,161.000000 
	C469.330353,160.999939 556.160706,161.000717 642.991028,160.995117 
	C645.156555,160.994980 647.408997,161.272064 649.455994,160.760178 
	C650.745300,160.437759 652.431580,159.062897 652.736206,157.856247 
	C655.431030,147.183777 652.911926,144.000763 642.125183,144.000702 
	C461.464783,143.999893 280.804352,143.999924 100.143951,144.002731 
	C98.144325,144.002762 95.954216,143.541245 94.200836,144.208771 
	C92.580460,144.825653 90.993118,146.455429 90.203026,148.043091 
	C89.534119,149.387268 89.998360,151.309372 90.009300,152.975403 
	C90.053696,159.739304 90.254951,159.951035 97.095001,159.993088 
	C152.398010,160.333130 207.700699,160.754120 263.004211,160.970047 
	C302.502228,161.124252 342.001373,161.000000 382.500000,161.000000 
M1152.500000,144.000000 
	C1126.702271,143.666779 1100.905029,143.087128 1075.106812,143.046234 
	C995.629456,142.920303 916.151672,142.999542 836.674072,143.004257 
	C834.675415,143.004364 832.657532,142.910843 830.685974,143.158752 
	C829.636780,143.290695 827.835815,144.000351 827.794678,144.554657 
	C827.465393,148.991150 826.951050,153.548935 827.737000,157.841904 
	C827.943481,158.969788 832.497864,159.904510 835.058655,159.912231 
	C977.823059,160.343216 1120.587769,160.669739 1263.352539,160.995071 
	C1279.347900,161.031525 1295.343506,161.001236 1311.338989,160.999649 
	C1328.167603,160.997986 1344.996582,161.040833 1361.824341,160.923126 
	C1363.665283,160.910248 1366.990723,160.168503 1367.091675,159.422165 
	C1367.684326,155.035583 1368.120850,150.423584 1367.239258,146.171799 
	C1366.988159,144.961243 1362.168213,144.093628 1359.441895,144.089157 
	C1290.794678,143.976486 1222.147339,144.000259 1152.500000,144.000000 
M759.000000,123.495850 
	C759.469910,114.117310 759.976318,105.103691 750.011108,99.103134 
	C746.247009,96.836517 743.047974,95.747314 738.983398,96.245560 
	C736.843811,96.507835 734.710083,96.850250 732.562744,97.009598 
	C727.656250,97.373703 714.154724,109.102699 713.167664,113.940781 
	C713.101501,114.265182 713.084351,114.602539 713.073303,114.934837 
	C712.396545,135.370850 711.647217,155.804962 711.097107,176.244400 
	C710.941467,182.026672 723.145386,192.081116 728.820068,191.293045 
	C732.601074,190.767929 736.471130,190.718018 740.180725,189.905151 
	C742.447632,189.408417 744.846436,188.264267 746.548157,186.711716 
	C749.600769,183.926590 752.410583,180.789261 754.856750,177.457565 
	C756.343201,175.433029 757.741821,172.798767 757.836060,170.385956 
	C758.432922,155.095505 758.654541,139.790390 759.000000,123.495850 
M783.383728,92.412376 
	C782.039246,93.039429 780.329346,93.334221 779.408691,94.346695 
	C772.731934,101.689323 764.000732,108.110893 766.975891,120.139389 
	C767.170166,120.924698 766.776306,121.884636 767.049805,122.616051 
	C768.103210,125.432785 768.662598,128.807159 770.593628,130.852509 
	C776.289978,136.886078 782.216736,142.808044 788.701599,147.957291 
	C793.798218,152.004196 794.426514,156.848282 793.963623,162.503189 
	C793.649414,166.341705 787.748596,173.396210 783.959229,173.792252 
	C779.033508,174.307037 774.028320,174.776672 769.110657,174.453873 
	C764.159973,174.128952 765.078796,177.381256 765.084534,179.981491 
	C765.090210,182.567764 764.136230,186.141510 769.074646,185.467697 
	C774.006287,184.794800 779.055969,184.784943 783.903687,183.768051 
	C787.310547,183.053406 791.018677,181.805008 793.630676,179.636566 
	C801.870605,172.795746 807.081238,164.514954 805.177002,152.903946 
	C804.550415,149.083145 803.875977,145.945435 800.887634,143.348419 
	C794.622498,137.903656 788.547180,132.240921 782.309692,126.763596 
	C776.838989,121.959526 775.130249,116.968842 778.489990,110.958313 
	C781.053223,106.372871 783.806458,101.237297 790.819397,101.798645 
	C794.739563,102.112419 798.743286,101.305138 802.713867,101.084526 
	C808.200500,100.779678 806.084534,96.143234 806.671753,93.486511 
	C807.389465,90.239861 804.546753,89.974724 802.001770,90.255798 
	C796.065369,90.911407 790.128601,91.563225 783.383728,92.412376 
M691.859131,184.262161 
	C688.137512,184.594788 684.415955,184.927414 680.323547,185.293182 
	C680.583374,181.179459 680.914001,177.911896 680.976135,174.639267 
	C681.357910,154.530624 681.678040,134.420807 682.023682,114.311470 
	C682.037964,113.480232 682.039429,112.641357 682.151733,111.820389 
	C683.178467,104.316330 683.193176,104.440331 675.470581,104.933838 
	C671.757812,105.171104 669.576538,105.845627 671.428223,110.269257 
	C672.098511,111.870506 672.024963,113.870567 671.959656,115.676666 
	C671.713684,122.474838 671.193359,129.264709 671.027039,136.063828 
	C670.604309,153.341965 670.337891,170.623886 669.942078,187.902756 
	C669.904785,189.531204 669.623901,191.233536 669.059143,192.754166 
	C667.810791,196.115524 669.317139,197.163712 672.314392,196.809006 
	C682.025208,195.659851 691.731689,194.463943 701.421509,193.150894 
	C707.965820,192.264099 708.491699,191.367172 707.995483,185.030136 
	C707.738953,181.753952 706.478638,181.231384 703.443848,182.122955 
	C699.977112,183.141388 696.314453,183.493011 691.859131,184.262161 
z"/>
<path fill="#163D34" opacity="1.000000" stroke="none" 
	d="
M251.000000,516.000000 
	C622.764038,516.000061 994.028076,515.999939 1365.292114,516.000427 
	C1376.235229,516.000427 1376.064087,516.003357 1376.072021,526.909058 
	C1376.075317,531.416016 1374.548218,533.452881 1369.969727,533.015137 
	C1368.318726,532.857300 1366.639526,532.999451 1364.973145,532.999451 
	C946.384583,532.999939 527.795959,533.000000 109.207413,532.999695 
	C97.150429,532.999695 97.139442,532.909912 97.990524,520.587830 
	C98.204185,517.494385 99.370483,515.950256 102.529144,516.033386 
	C104.360298,516.081665 106.194473,516.002136 108.027290,516.002075 
	C155.518188,515.999634 203.009094,516.000061 251.000000,516.000000 
z"/>
<path fill="#163D34" opacity="1.000000" stroke="none" 
	d="
M368.250000,246.750000 
	C373.211945,251.713120 378.151642,256.227356 382.525360,261.235840 
	C384.311096,263.280731 385.806488,266.384491 385.839966,269.026672 
	C386.105804,290.016602 386.106354,311.012878 385.838837,332.002777 
	C385.805206,334.642365 384.266083,337.699860 382.505371,339.789154 
	C378.867859,344.105560 374.373871,347.699982 370.734009,352.014709 
	C369.422119,353.569824 368.629272,356.595367 369.163269,358.514862 
	C374.330688,377.089142 379.728363,395.601898 385.321472,414.053070 
	C386.466400,417.830109 388.734772,421.261047 390.416077,424.883667 
	C391.151794,426.468903 391.713501,428.134918 392.632629,430.472137 
	C390.284088,430.693848 388.699463,430.970367 387.114288,430.973511 
	C371.119446,431.005066 355.124451,431.022644 339.129700,430.975403 
	C333.150604,430.957764 333.252838,430.501099 333.721619,424.612610 
	C334.133240,419.442169 334.146820,414.017578 333.035583,408.992889 
	C330.417511,397.154602 326.951935,385.505981 323.987213,373.740784 
	C323.103882,370.235260 321.323456,368.697479 317.645874,369.048767 
	C313.636444,369.431702 314.036560,372.311584 314.029144,374.932587 
	C313.991943,388.094910 313.833618,401.261627 314.142273,414.416901 
	C314.220978,417.771423 315.844513,421.090363 316.763550,424.424194 
	C317.272034,426.268738 317.791534,428.110199 318.462708,430.514130 
	C316.170685,430.713531 314.562317,430.972076 312.953491,430.975067 
	C296.958649,431.004883 280.963654,431.023621 264.968903,430.976074 
	C259.014893,430.958344 259.215759,430.682434 260.732452,425.005768 
	C262.294983,419.157410 263.831604,413.070557 263.860962,407.080627 
	C264.105804,357.097748 263.945709,307.113037 264.062805,257.129242 
	C264.078979,250.215256 263.803436,243.493515 260.554291,237.232574 
	C258.698792,233.657150 259.622559,231.999527 263.758606,232.005508 
	C292.582550,232.047165 321.406921,231.975662 350.229797,232.156662 
	C352.267975,232.169449 354.656769,233.502258 356.257080,234.924835 
	C360.359467,238.571625 364.109253,242.615128 368.250000,246.750000 
M314.013275,280.758484 
	C314.015717,293.712494 314.084351,306.667023 313.979279,319.620148 
	C313.948792,323.374451 315.300842,325.188568 319.211609,325.008026 
	C322.857910,324.839661 326.545380,325.217651 330.161896,324.843872 
	C334.183685,324.428162 336.945343,322.243225 336.954651,317.775116 
	C336.979218,305.983948 337.054382,294.191406 336.898102,282.402161 
	C336.839111,277.949615 334.174988,275.366241 329.722351,275.098480 
	C326.081696,274.879578 322.416351,275.109497 318.765289,275.014008 
	C315.378601,274.925446 313.854858,276.502563 314.013275,280.758484 
z"/>
<path fill="#163D34" opacity="1.000000" stroke="none" 
	d="
M840.176270,314.239258 
	C844.485840,292.811676 848.826233,271.823303 852.828613,250.770660 
	C853.335999,248.101669 852.421509,244.982285 851.537964,242.276581 
	C850.537231,239.212280 848.828857,236.379120 847.014221,232.578323 
	C849.800598,232.322998 851.534851,232.028397 853.269592,232.025787 
	C874.094299,231.994446 894.919861,232.096939 915.743347,231.934509 
	C920.181458,231.899902 922.230103,233.335907 923.122253,237.860718 
	C934.627136,296.213409 946.275146,354.538025 957.994812,412.848022 
	C958.604370,415.881104 960.108521,418.751526 961.335632,421.638397 
	C962.484558,424.341217 963.818787,426.965240 965.439697,430.405670 
	C963.114990,430.657990 961.562195,430.969727 960.008728,430.973053 
	C943.682129,431.007996 927.353333,430.844788 911.030212,431.085052 
	C906.227295,431.155701 904.906128,429.200287 906.241211,425.143677 
	C909.458923,415.367004 905.683655,406.123627 904.142395,396.753387 
	C903.901733,395.290436 901.075867,393.310944 899.343079,393.202301 
	C892.705444,392.786102 886.025635,393.085846 879.362671,393.014771 
	C876.152100,392.980530 874.481079,394.359131 873.981384,397.580963 
	C872.487976,407.209595 869.378845,416.718689 872.591187,426.608215 
	C873.413086,429.138763 872.184204,430.898468 869.334839,430.899750 
	C851.511353,430.907715 833.687805,430.879578 815.864441,430.822479 
	C815.276489,430.820587 814.690063,430.380371 813.949768,430.082947 
	C814.015625,429.293274 813.860229,428.534943 814.151978,428.040344 
	C822.333008,414.169556 823.163391,398.272278 826.394653,383.077881 
	C831.232605,360.328583 835.559082,337.470520 840.176270,314.239258 
M897.081787,345.038177 
	C894.699463,329.151489 892.317200,313.264771 889.779297,296.340820 
	C888.819580,297.887756 888.397705,298.276611 888.329468,298.719879 
	C885.933472,314.281769 883.557007,329.846680 881.214661,345.416718 
	C880.728882,348.645660 882.474976,350.591217 885.446228,349.826447 
	C889.397400,348.809448 895.201477,353.674591 897.232300,346.344727 
	C897.272583,346.199188 897.187134,346.018768 897.081787,345.038177 
z"/>
<path fill="#163D34" opacity="1.000000" stroke="none" 
	d="
M1191.321899,355.174622 
	C1184.388550,355.085693 1177.888062,355.151154 1171.393677,354.982788 
	C1167.620239,354.885010 1165.902588,356.306824 1165.980103,360.228241 
	C1166.131348,367.890472 1166.086182,375.558258 1166.007690,383.222565 
	C1165.973022,386.620483 1167.497192,388.012451 1170.843506,387.993652 
	C1183.174072,387.924377 1195.520996,388.309479 1207.827515,387.757965 
	C1212.125977,387.565338 1216.403687,385.354034 1220.547241,383.704041 
	C1224.400024,382.169861 1226.077515,382.831726 1226.031372,387.289948 
	C1225.901855,399.786346 1225.830444,412.287994 1226.070190,424.781158 
	C1226.163574,429.651154 1224.256348,431.082733 1219.597534,431.063293 
	C1187.770386,430.930481 1155.942627,430.997467 1124.114990,430.999969 
	C1120.173828,431.000275 1116.232788,431.000000 1111.901001,431.000000 
	C1112.129150,429.191528 1111.982422,428.107758 1112.406616,427.339172 
	C1116.670044,419.614655 1117.111328,411.300110 1117.081787,402.682098 
	C1116.913208,353.524872 1116.911499,304.366394 1117.105347,255.209320 
	C1117.131226,248.644394 1115.640991,242.721939 1112.956177,236.942230 
	C1111.400024,233.592270 1112.055664,231.984253 1116.031616,231.990082 
	C1150.025391,232.039902 1184.019287,232.030365 1218.013062,232.017761 
	C1220.864258,232.016708 1222.952148,232.727371 1222.944702,236.134293 
	C1222.914185,249.963791 1222.919678,263.793396 1222.876465,277.622864 
	C1222.874512,278.244171 1222.525513,278.864380 1222.314453,279.563568 
	C1221.219604,279.563568 1220.048950,279.925232 1219.327026,279.508759 
	C1209.999390,274.126556 1199.770874,274.921051 1189.635132,274.993439 
	C1183.469849,275.037506 1177.302490,275.103241 1171.139160,274.992249 
	C1167.590698,274.928406 1165.948242,276.309570 1165.994019,279.982147 
	C1166.101929,288.645782 1166.100830,297.312622 1165.993042,305.976257 
	C1165.947876,309.615631 1167.516724,311.045624 1171.097412,311.007355 
	C1181.532349,310.895905 1192.141479,312.258972 1201.833130,306.708130 
	C1202.727417,306.195953 1204.005615,306.354218 1205.313599,306.172180 
	C1205.575317,307.439758 1205.939209,308.387299 1205.941528,309.335724 
	C1205.978638,324.666046 1205.953125,339.996521 1205.984131,355.326874 
	C1205.991333,358.921600 1204.797974,360.284729 1201.124390,358.654755 
	C1198.092529,357.309570 1194.886230,356.357300 1191.321899,355.174622 
z"/>
<path fill="#163D34" opacity="1.000000" stroke="none" 
	d="
M440.000031,431.000000 
	C433.335510,430.994385 427.170593,430.944153 421.006592,431.001007 
	C417.676056,431.031708 415.931976,429.810333 417.847748,426.539978 
	C422.105988,419.271027 422.065125,411.380280 422.048889,403.334015 
	C421.950684,354.684052 421.945770,306.033722 422.061310,257.383850 
	C422.077728,250.470047 421.806580,243.781219 418.393524,237.548035 
	C417.704651,236.289963 417.555725,234.736267 416.951569,232.583817 
	C418.995880,232.366089 420.697479,232.028320 422.399445,232.026749 
	C455.388214,231.996216 488.377350,232.081390 521.365356,231.922958 
	C526.291992,231.899292 528.197205,233.389587 528.081909,238.485504 
	C527.806885,250.641785 528.026794,262.808655 527.979553,274.971008 
	C527.958801,280.318329 527.225098,280.961700 522.627930,278.784393 
	C516.130371,275.707031 509.429688,274.673462 502.291412,274.928406 
	C493.638489,275.237457 484.966003,275.075958 476.303223,274.991669 
	C472.891785,274.958496 470.952759,276.014893 470.998627,279.816467 
	C471.105164,288.645355 471.087250,297.476807 471.011505,306.306274 
	C470.981812,309.766693 472.641785,311.025452 475.926025,310.993042 
	C486.354156,310.890045 496.952301,312.270050 506.664673,306.766998 
	C509.038879,305.421783 510.959656,305.879791 510.948700,309.158508 
	C510.894775,325.313232 510.814423,341.467834 510.721527,357.622406 
	C510.719849,357.916351 510.447601,358.208771 509.932709,359.242310 
	C507.817352,358.706757 505.370209,358.463684 503.261536,357.488617 
	C493.822388,353.124023 483.899323,355.482635 474.182648,355.319031 
	C473.166260,355.301910 471.253571,357.647400 471.210754,358.944702 
	C470.936188,367.265533 470.885681,375.607574 471.244568,383.921783 
	C471.304535,385.311188 473.698120,387.728912 475.054565,387.758087 
	C488.209564,388.041046 501.379211,388.125122 514.530273,387.754242 
	C517.677551,387.665466 520.766357,385.659607 523.891296,384.562073 
	C525.848999,383.874542 527.824097,383.236694 530.498596,382.339264 
	C530.708435,384.909698 530.970825,386.666443 530.976074,388.423950 
	C531.012207,400.419739 530.814270,412.419739 531.080078,424.409729 
	C531.190552,429.394379 529.508850,431.112213 524.470154,431.080109 
	C496.481079,430.901611 468.490234,430.997803 440.000031,431.000000 
z"/>
<path fill="#163D34" opacity="1.000000" stroke="none" 
	d="
M577.750000,335.250000 
	C570.784973,328.283691 563.899780,321.724457 557.463257,314.751038 
	C555.639832,312.775604 554.234619,309.615204 554.163513,306.957397 
	C553.824829,294.303253 553.822754,281.629944 554.166138,268.976044 
	C554.238159,266.323730 555.661804,263.146942 557.505981,261.200256 
	C565.868103,252.373413 574.473145,243.762299 583.307373,235.408310 
	C585.246948,233.574173 588.468262,232.189590 591.118774,232.156601 
	C612.109741,231.895508 633.105896,232.079712 654.099365,231.954681 
	C658.316345,231.929581 660.111267,233.315399 660.049194,237.719528 
	C659.870850,250.380188 660.002075,263.045044 659.964417,275.708130 
	C659.960571,276.983368 659.634644,278.257660 659.429260,279.741333 
	C658.138916,279.656158 656.994324,279.913116 656.249878,279.480835 
	C647.250122,274.255554 637.377869,274.852661 627.556213,274.988647 
	C622.725098,275.055542 617.885132,275.167572 613.062561,274.955078 
	C608.880432,274.770813 604.774231,275.558899 603.650330,279.746033 
	C602.447327,284.228088 601.619995,289.222321 605.761230,293.293274 
	C614.910278,302.286987 623.923462,311.418793 632.993408,320.492950 
	C640.885437,328.388611 648.905945,336.162598 656.576721,344.267639 
	C658.329590,346.119720 659.780212,349.091827 659.833130,351.581116 
	C660.137756,365.903992 660.096008,380.238617 659.858276,394.564056 
	C659.821228,396.793304 658.719482,399.520172 657.179932,401.123993 
	C648.412354,410.257355 639.465515,419.227417 630.317200,427.978668 
	C628.603333,429.618134 625.708008,430.830872 623.343445,430.855499 
	C602.184875,431.076080 581.022644,430.916687 559.862549,431.046173 
	C555.607239,431.072235 553.890381,429.607880 553.951111,425.242493 
	C554.127197,412.581757 554.021057,399.916962 554.009399,387.253784 
	C554.006836,384.506256 554.465759,381.370239 558.017334,383.318207 
	C569.875366,389.822113 582.661011,387.645416 595.191162,387.986023 
	C598.020935,388.062958 600.958008,388.416412 603.655945,387.805176 
	C605.881409,387.301025 608.345642,385.993561 609.785339,384.273254 
	C612.595337,380.915619 611.219238,368.778839 608.025696,365.563965 
	C598.044189,355.515747 588.012329,345.517548 577.750000,335.250000 
z"/>
<path fill="#163D34" opacity="1.000000" stroke="none" 
	d="
M1309.250122,301.750122 
	C1323.395752,315.897034 1337.234253,329.851837 1351.236206,343.640564 
	C1353.952271,346.315247 1355.097168,349.114899 1355.054565,352.892120 
	C1354.900391,366.555176 1355.163452,380.225037 1354.840088,393.882202 
	C1354.776978,396.543945 1353.423584,399.755493 1351.588989,401.695374 
	C1343.233765,410.530579 1334.621826,419.137115 1325.793335,427.499878 
	C1323.846924,429.343628 1320.655151,430.804443 1318.016357,430.838196 
	C1297.022705,431.106873 1276.023438,430.899567 1255.027588,431.059113 
	C1250.450073,431.093903 1248.869263,429.416809 1248.941772,424.905884 
	C1249.139893,412.577484 1248.991455,400.243713 1249.027832,387.912231 
	C1249.032471,386.321350 1249.316772,384.731262 1249.548828,382.347198 
	C1252.187500,383.236664 1254.117920,384.059296 1256.130493,384.532379 
	C1261.394165,385.769714 1266.650757,387.494171 1271.988770,387.851837 
	C1280.283447,388.407593 1288.643677,388.045349 1296.975220,387.970612 
	C1303.467773,387.912323 1305.489502,385.371155 1306.089355,378.820068 
	C1306.750488,371.596558 1304.400146,366.404999 1299.075684,361.320648 
	C1283.291748,346.248413 1267.981812,330.672333 1252.758789,315.028351 
	C1250.707886,312.920746 1249.265137,309.322845 1249.172729,306.364075 
	C1248.782837,293.878052 1248.843140,281.368591 1249.153931,268.878021 
	C1249.216553,266.358673 1250.485474,263.313721 1252.223511,261.485840 
	C1260.718140,252.552109 1269.446655,243.829391 1278.372803,235.326416 
	C1280.208252,233.578064 1283.230225,232.186386 1285.723267,232.157104 
	C1306.884033,231.908676 1328.049438,232.087051 1349.212280,231.952194 
	C1353.544800,231.924591 1355.105591,233.544937 1355.047729,237.833679 
	C1354.879272,250.329636 1354.910889,262.830170 1355.034912,275.327179 
	C1355.077148,279.573090 1353.702759,280.969086 1349.730225,278.897888 
	C1343.193359,275.489655 1336.229248,274.629639 1328.928589,274.935394 
	C1321.775391,275.234955 1314.595947,275.148346 1307.435791,274.951691 
	C1303.560303,274.845215 1299.575317,275.798676 1298.885254,279.412140 
	C1298.106812,283.488922 1298.404419,288.451508 1300.134888,292.135986 
	C1301.869995,295.830292 1305.948608,298.423950 1309.250122,301.750122 
z"/>
<path fill="#163D34" opacity="1.000000" stroke="none" 
	d="
M753.047485,388.000000 
	C759.370605,388.000000 765.202942,387.916260 771.031921,388.019562 
	C779.865173,388.176025 788.681702,388.485809 796.806335,383.990601 
	C798.008789,383.325317 799.582336,383.330780 801.542969,382.904419 
	C801.725464,385.069031 801.973328,386.670074 801.977478,388.271759 
	C802.008911,400.433105 801.879883,412.596191 802.051270,424.755188 
	C802.112305,429.088745 800.889404,431.098480 796.126343,431.064178 
	C772.637634,430.894867 749.146301,431.067352 725.658264,430.856262 
	C723.295166,430.835022 720.398621,429.619812 718.685120,427.980774 
	C709.538025,419.231049 700.592834,410.262238 691.826172,401.130707 
	C690.286133,399.526611 689.144775,396.792816 689.136475,394.575836 
	C688.978333,352.594452 688.971313,310.612122 689.142151,268.630859 
	C689.151733,266.274872 690.397217,263.381561 692.037415,261.665344 
	C700.668091,252.635040 709.510925,243.798615 718.532654,235.158630 
	C720.258057,233.506271 723.107422,232.175171 725.451782,232.153412 
	C749.106262,231.933762 772.763489,232.020279 796.419983,232.013336 
	C799.253967,232.012497 801.939026,232.179031 801.931885,236.039276 
	C801.905945,250.030762 801.880920,264.022278 801.825439,278.013641 
	C801.823669,278.470734 801.495422,278.926544 800.968018,280.293915 
	C798.559753,279.344879 796.279297,278.163635 793.855164,277.553986 
	C789.719788,276.513977 785.511597,275.239075 781.303101,275.115479 
	C769.984436,274.783081 758.649231,274.965790 747.321045,275.025024 
	C740.512451,275.060608 738.032837,277.535950 738.024536,284.388458 
	C737.987061,315.375122 737.993958,346.361908 738.009705,377.348633 
	C738.014038,385.966827 740.010559,387.942780 748.556946,387.995972 
	C749.889587,388.004242 751.222412,387.998993 753.047485,388.000000 
z"/>
<path fill="#163D34" opacity="1.000000" stroke="none" 
	d="
M232.524353,279.816895 
	C223.450424,274.561493 213.820129,274.710022 204.120926,274.963745 
	C196.795502,275.155396 189.460327,275.096069 182.131729,274.991638 
	C178.579330,274.941010 176.954620,276.321259 176.993637,279.987488 
	C177.096420,289.648895 177.095551,299.312805 176.992996,308.974243 
	C176.954407,312.609802 178.510406,314.063232 182.093445,314.003754 
	C192.841614,313.825348 203.814499,315.444580 213.806107,309.684875 
	C214.355484,309.368195 215.063110,309.256012 215.709915,309.201782 
	C216.179703,309.162354 216.670685,309.375946 217.570221,309.564209 
	C217.570221,326.896393 217.570221,344.260284 217.570221,362.745361 
	C213.581268,361.333069 210.328690,359.478516 206.915466,359.109314 
	C197.904037,358.134583 188.826584,357.687958 179.763718,357.404938 
	C178.901993,357.378021 177.183426,359.972717 177.169983,361.362976 
	C176.999100,379.019897 176.813248,396.685638 177.264786,414.332916 
	C177.369934,418.442932 179.777222,422.518921 181.263901,426.559540 
	C182.176331,429.039429 182.291580,430.940918 178.923187,430.939240 
	C160.933258,430.930267 142.943329,430.882812 124.953499,430.819214 
	C124.499138,430.817596 124.045967,430.476074 122.668999,429.920715 
	C123.735718,427.049622 125.004410,424.259918 125.796738,421.340912 
	C126.742882,417.855225 127.895134,414.260376 127.904099,410.710144 
	C128.037476,357.899231 128.088699,305.087494 127.839874,252.277405 
	C127.817284,247.484177 125.610428,242.698700 124.396744,237.914993 
	C123.972969,236.244675 123.485336,234.590546 122.870628,232.362885 
	C125.385338,232.213791 127.171501,232.016541 128.957764,232.015549 
	C161.777359,231.997086 194.596970,231.993988 227.416565,232.008316 
	C234.893112,232.011566 234.977722,232.104523 234.991501,239.532486 
	C235.013443,251.360825 235.076126,263.190430 234.900055,275.016205 
	C234.876007,276.631470 233.576828,278.227753 232.524353,279.816895 
z"/>
<path fill="#163D34" opacity="1.000000" stroke="none" 
	d="
M986.000000,274.000000 
	C986.000000,269.501740 985.886841,265.499634 986.023254,261.506042 
	C986.320129,252.811996 986.319824,244.195343 981.971191,236.247849 
	C981.584717,235.541473 981.467041,234.673492 981.309814,233.864014 
	C981.253174,233.572693 981.447693,233.232590 981.642212,232.458664 
	C1000.885864,232.458664 1020.236023,232.458664 1040.405273,232.458664 
	C1039.678223,234.915665 1039.378052,237.027695 1038.461670,238.825760 
	C1035.498047,244.640717 1034.907593,250.753998 1034.929565,257.194611 
	C1035.068604,298.176208 1034.995483,339.158539 1035.006470,380.140625 
	C1035.008545,387.958862 1035.037964,387.967346 1042.755981,387.995026 
	C1047.587158,388.012360 1052.419678,387.929565 1057.249390,388.015045 
	C1066.252808,388.174377 1075.268799,388.593842 1083.373047,383.469238 
	C1084.260376,382.908203 1085.580933,383.032410 1087.352173,382.726074 
	C1087.585693,384.522491 1087.956909,386.075165 1087.962769,387.629211 
	C1088.010010,400.123535 1087.883423,412.619537 1088.046509,425.111908 
	C1088.101562,429.342590 1086.657471,431.062775 1082.269897,431.047180 
	C1050.284424,430.933563 1018.298096,431.008301 986.312256,430.959656 
	C981.321350,430.952087 980.345703,429.753723 982.535889,425.323975 
	C985.688110,418.948212 986.068604,412.337738 986.052307,405.442627 
	C985.949341,361.795288 986.000000,318.147583 986.000000,274.000000 
z"/>
<path fill="#163D34" opacity="1.000000" stroke="none" 
	d="
M382.000000,161.000000 
	C342.001373,161.000000 302.502228,161.124252 263.004211,160.970047 
	C207.700699,160.754120 152.398010,160.333130 97.095001,159.993088 
	C90.254951,159.951035 90.053696,159.739304 90.009300,152.975403 
	C89.998360,151.309372 89.534119,149.387268 90.203026,148.043091 
	C90.993118,146.455429 92.580460,144.825653 94.200836,144.208771 
	C95.954216,143.541245 98.144325,144.002762 100.143951,144.002731 
	C280.804352,143.999924 461.464783,143.999893 642.125183,144.000702 
	C652.911926,144.000763 655.431030,147.183777 652.736206,157.856247 
	C652.431580,159.062897 650.745300,160.437759 649.455994,160.760178 
	C647.408997,161.272064 645.156555,160.994980 642.991028,160.995117 
	C556.160706,161.000717 469.330353,160.999939 382.000000,161.000000 
z"/>
<path fill="#163D34" opacity="1.000000" stroke="none" 
	d="
M1153.000000,144.000000 
	C1222.147339,144.000259 1290.794678,143.976486 1359.441895,144.089157 
	C1362.168213,144.093628 1366.988159,144.961243 1367.239258,146.171799 
	C1368.120850,150.423584 1367.684326,155.035583 1367.091675,159.422165 
	C1366.990723,160.168503 1363.665283,160.910248 1361.824341,160.923126 
	C1344.996582,161.040833 1328.167603,160.997986 1311.338989,160.999649 
	C1295.343506,161.001236 1279.347900,161.031525 1263.352539,160.995071 
	C1120.587769,160.669739 977.823059,160.343216 835.058655,159.912231 
	C832.497864,159.904510 827.943481,158.969788 827.737000,157.841904 
	C826.951050,153.548935 827.465393,148.991150 827.794678,144.554657 
	C827.835815,144.000351 829.636780,143.290695 830.685974,143.158752 
	C832.657532,142.910843 834.675415,143.004364 836.674072,143.004257 
	C916.151672,142.999542 995.629456,142.920303 1075.106812,143.046234 
	C1100.905029,143.087128 1126.702271,143.666779 1153.000000,144.000000 
z"/>
<path fill="#163D34" opacity="1.000000" stroke="none" 
	d="
M759.000000,123.992981 
	C758.654541,139.790390 758.432922,155.095505 757.836060,170.385956 
	C757.741821,172.798767 756.343201,175.433029 754.856750,177.457565 
	C752.410583,180.789261 749.600769,183.926590 746.548157,186.711716 
	C744.846436,188.264267 742.447632,189.408417 740.180725,189.905151 
	C736.471130,190.718018 732.601074,190.767929 728.820068,191.293045 
	C723.145386,192.081116 710.941467,182.026672 711.097107,176.244400 
	C711.647217,155.804962 712.396545,135.370850 713.073303,114.934837 
	C713.084351,114.602539 713.101501,114.265182 713.167664,113.940781 
	C714.154724,109.102699 727.656250,97.373703 732.562744,97.009598 
	C734.710083,96.850250 736.843811,96.507835 738.983398,96.245560 
	C743.047974,95.747314 746.247009,96.836517 750.011108,99.103134 
	C759.976318,105.103691 759.469910,114.117310 759.000000,123.992981 
M746.760010,170.604813 
	C747.173340,159.484909 747.611877,148.365845 747.991028,137.244781 
	C748.239990,129.941925 748.449829,122.636787 748.552979,115.330902 
	C748.567932,114.273041 748.107422,113.051804 747.491760,112.167229 
	C743.618958,106.602760 738.846558,104.314384 732.593872,107.564072 
	C728.557739,109.661774 723.798340,114.794212 723.492615,118.875877 
	C722.178955,136.417633 722.294739,154.072922 722.118347,171.689117 
	C722.070862,176.434372 727.266968,180.743591 732.037476,180.991592 
	C739.322815,181.370346 743.068054,176.653717 746.760010,170.604813 
z"/>
<path fill="#163D34" opacity="1.000000" stroke="none" 
	d="
M783.787842,92.314468 
	C790.128601,91.563225 796.065369,90.911407 802.001770,90.255798 
	C804.546753,89.974724 807.389465,90.239861 806.671753,93.486511 
	C806.084534,96.143234 808.200500,100.779678 802.713867,101.084526 
	C798.743286,101.305138 794.739563,102.112419 790.819397,101.798645 
	C783.806458,101.237297 781.053223,106.372871 778.489990,110.958313 
	C775.130249,116.968842 776.838989,121.959526 782.309692,126.763596 
	C788.547180,132.240921 794.622498,137.903656 800.887634,143.348419 
	C803.875977,145.945435 804.550415,149.083145 805.177002,152.903946 
	C807.081238,164.514954 801.870605,172.795746 793.630676,179.636566 
	C791.018677,181.805008 787.310547,183.053406 783.903687,183.768051 
	C779.055969,184.784943 774.006287,184.794800 769.074646,185.467697 
	C764.136230,186.141510 765.090210,182.567764 765.084534,179.981491 
	C765.078796,177.381256 764.159973,174.128952 769.110657,174.453873 
	C774.028320,174.776672 779.033508,174.307037 783.959229,173.792252 
	C787.748596,173.396210 793.649414,166.341705 793.963623,162.503189 
	C794.426514,156.848282 793.798218,152.004196 788.701599,147.957291 
	C782.216736,142.808044 776.289978,136.886078 770.593628,130.852509 
	C768.662598,128.807159 768.103210,125.432785 767.049805,122.616051 
	C766.776306,121.884636 767.170166,120.924698 766.975891,120.139389 
	C764.000732,108.110893 772.731934,101.689323 779.408691,94.346695 
	C780.329346,93.334221 782.039246,93.039429 783.787842,92.314468 
z"/>
<path fill="#163D34" opacity="1.000000" stroke="none" 
	d="
M692.298035,184.198273 
	C696.314453,183.493011 699.977112,183.141388 703.443848,182.122955 
	C706.478638,181.231384 707.738953,181.753952 707.995483,185.030136 
	C708.491699,191.367172 707.965820,192.264099 701.421509,193.150894 
	C691.731689,194.463943 682.025208,195.659851 672.314392,196.809006 
	C669.317139,197.163712 667.810791,196.115524 669.059143,192.754166 
	C669.623901,191.233536 669.904785,189.531204 669.942078,187.902756 
	C670.337891,170.623886 670.604309,153.341965 671.027039,136.063828 
	C671.193359,129.264709 671.713684,122.474838 671.959656,115.676666 
	C672.024963,113.870567 672.098511,111.870506 671.428223,110.269257 
	C669.576538,105.845627 671.757812,105.171104 675.470581,104.933838 
	C683.193176,104.440331 683.178467,104.316330 682.151733,111.820389 
	C682.039429,112.641357 682.037964,113.480232 682.023682,114.311470 
	C681.678040,134.420807 681.357910,154.530624 680.976135,174.639267 
	C680.914001,177.911896 680.583374,181.179459 680.323547,185.293182 
	C684.415955,184.927414 688.137512,184.594788 692.298035,184.198273 
z"/>
<path fill="#000000" opacity="1.000000" stroke="none" 
	d="
M314.022583,280.295593 
	C313.854858,276.502563 315.378601,274.925446 318.765289,275.014008 
	C322.416351,275.109497 326.081696,274.879578 329.722351,275.098480 
	C334.174988,275.366241 336.839111,277.949615 336.898102,282.402161 
	C337.054382,294.191406 336.979218,305.983948 336.954651,317.775116 
	C336.945343,322.243225 334.183685,324.428162 330.161896,324.843872 
	C326.545380,325.217651 322.857910,324.839661 319.211609,325.008026 
	C315.300842,325.188568 313.948792,323.374451 313.979279,319.620148 
	C314.084351,306.667023 314.015717,293.712494 314.022583,280.295593 
z"/>
<path fill="#000000" opacity="1.000000" stroke="none" 
	d="
M897.121094,345.446411 
	C897.187134,346.018768 897.272583,346.199188 897.232300,346.344727 
	C895.201477,353.674591 889.397400,348.809448 885.446228,349.826447 
	C882.474976,350.591217 880.728882,348.645660 881.214661,345.416718 
	C883.557007,329.846680 885.933472,314.281769 888.329468,298.719879 
	C888.397705,298.276611 888.819580,297.887756 889.779297,296.340820 
	C892.317200,313.264771 894.699463,329.151489 897.121094,345.446411 
z"/>
<path fill="#000000" opacity="1.000000" stroke="none" 
	d="
M746.646606,171.000580 
	C743.068054,176.653717 739.322815,181.370346 732.037476,180.991592 
	C727.266968,180.743591 722.070862,176.434372 722.118347,171.689117 
	C722.294739,154.072922 722.178955,136.417633 723.492615,118.875877 
	C723.798340,114.794212 728.557739,109.661774 732.593872,107.564072 
	C738.846558,104.314384 743.618958,106.602760 747.491760,112.167229 
	C748.107422,113.051804 748.567932,114.273041 748.552979,115.330902 
	C748.449829,122.636787 748.239990,129.941925 747.991028,137.244781 
	C747.611877,148.365845 747.173340,159.484909 746.646606,171.000580 
z"/>
</svg>